<?xml version="1.0" encoding="UTF-8" standalone="no"?>
<svg xmlns="http://www.w3.org/2000/svg" version="1.1" xmlns:xlink="http://www.w3.org/1999/xlink" xmlns:svgjs="http://svgjs.dev/svgjs" width="1500" height="1500" viewBox="0 0 1500 1500"><rect width="1500" height="1500" fill="#ffffff"></rect><g transform="matrix(0.6666666666666666,0,0,0.6666666666666666,249.39393939393938,644.9555593341506)"><svg viewBox="0 0 396 83" data-background-color="#ffffff" preserveAspectRatio="xMidYMid meet" height="314" width="1500" xmlns="http://www.w3.org/2000/svg" xmlns:xlink="http://www.w3.org/1999/xlink"><g id="tight-bounds" transform="matrix(1,0,0,1,0.2400000000000091,0.14978618757402273)"><svg viewBox="0 0 395.52 82.70042762485193" height="82.70042762485193" width="395.52"><g><svg viewBox="0 0 572.252615777225 119.65396448780488" height="82.70042762485193" width="395.52"><g><rect width="7.80790014500839" height="103.89635121951218" x="148.48518645680196" y="7.8788066341463505" fill="#61777f" opacity="1" stroke-width="0" stroke="transparent" fill-opacity="1" class="rect-qz-0" data-fill-palette-color="primary" rx="1%" id="qz-0" data-palette-color="#61777f"></rect></g><g transform="matrix(1,0,0,1,176.732615777225,16.53683590243903)"><svg viewBox="0 0 395.52 86.58029268292682" height="86.58029268292682" width="395.52"><g id="textblocktransform"><svg viewBox="0 0 395.52 86.58029268292682" height="86.58029268292682" width="395.52" id="textblock"><g><svg viewBox="0 0 395.52 86.58029268292682" height="86.58029268292682" width="395.52"><g transform="matrix(1,0,0,1,0,0)"><svg width="395.52" viewBox="0.5 -35.4 163.99 35.9" height="86.58029268292682" data-palette-color="#61777f"><path d="M9.9 0L0.5 0 2.9-8.45 2.9-14.8 6.6-16.3 13.1-35.35 26.05-35.35 34.1-12.95 37.95-5.85 37.95 0 29.1 0 26.6-8 12.05-8 9.9 0ZM19-27.15L15.35-15.7 23.85-15.7 20.05-27.15 19-27.15ZM50.5 0L41.5 0 41.5-27.4 40.45-32.4 41.5-35.4 50.5-35.4 50.5-27.4 49.95-14.45 51.95-14.45 55.8-23.6 66-23.6 66-20.6 60.45-12.5 64.15-8 68.85-2.95 68.85 0 59.15 0 53.5-8.25 50.5-7.75 50.5 0ZM81.3 0L72.4 0 72.4-15.65 71.35-20.65 72.4-23.65 79.2-23.65 80.2-22.5Q80.2-22.5 80.9-22.93 81.6-23.35 82.87-23.75 84.15-24.15 85.85-24.15L85.85-24.15Q86.85-24.15 87.85-24 88.85-23.85 89.4-23.6L89.4-23.6 92.65-20.85 89.4-14.45 82.8-17.2 81.3-16.7 81.3 0ZM100.64 0.5L100.64 0.5Q98.49 0.5 96.67-0.13 94.84-0.75 93.74-2.3 92.64-3.85 92.64-6.6L92.64-6.6Q92.64-9.1 93.89-10.75 95.14-12.4 97.29-13.2 99.44-14 102.14-14L102.14-14Q104.74-14 106.04-13.43 107.34-12.85 108.29-12.25L108.29-12.25 108.64-12.55Q108.64-14.05 108.39-15.05 108.14-16.05 107.24-16.57 106.34-17.1 104.44-17.1L104.44-17.1Q102.59-17.1 100.52-16.78 98.44-16.45 96.72-15.98 94.99-15.5 94.14-15.05L94.14-15.05 94.14-22.55Q95.69-23.1 98.57-23.58 101.44-24.05 105.64-24.05L105.64-24.05Q110.14-24.05 112.77-22.93 115.39-21.8 116.54-19.68 117.69-17.55 117.69-14.6L117.69-14.6 117.69-7.95 118.69-2.9 117.69 0.05 109.14 0.05 109.14-2.4 108.64-2.65Q108.24-2.25 107.24-1.5 106.24-0.75 104.59-0.13 102.94 0.5 100.64 0.5ZM104.89-6.05L104.89-6.05Q106.24-6.05 107.22-6.3 108.19-6.55 108.64-6.75L108.64-6.75 108.64-7.7Q108.64-8.35 107.72-8.95 106.79-9.55 104.84-9.55L104.84-9.55Q102.14-9.55 102.14-7.65L102.14-7.65Q102.14-6.85 102.74-6.45 103.34-6.05 104.89-6.05ZM123.69-15.05L122.69-20.55 124.24-23.6 131.69-23.6 131.69-21.45 132.14-21.15Q132.69-21.65 133.67-22.33 134.64-23 136.04-23.55 137.44-24.1 139.19-24.1L139.19-24.1Q144.39-24.1 146.64-20.65L146.64-20.65Q147.54-21.9 149.37-23.03 151.19-24.15 154.44-24.15L154.44-24.15Q158.94-24.15 161.19-21.6 163.44-19.05 163.44-14.45L163.44-14.45 163.44-8.05 164.49-3.05 163.44 0 154.44 0 154.44-13.15Q154.44-15.05 153.62-16.07 152.79-17.1 151.04-17.1L151.04-17.1Q149.89-17.1 149.04-16.25 148.19-15.4 148.19-14.1L148.19-14.1 148.19 0 139.19 0 139.19-13.1Q139.19-15 138.37-16.03 137.54-17.05 135.79-17.05L135.79-17.05 132.69-16.1 132.69 0 123.69 0 123.69-15.05Z" opacity="1" transform="matrix(1,0,0,1,0,0)" fill="#61777f" class="wordmark-text-0" data-fill-palette-color="primary" id="text-0"></path></svg></g></svg></g></svg></g></svg></g><g><svg viewBox="0 0 128.04565728138732 119.65396448780488" height="119.65396448780488" width="128.04565728138732"><g><svg xmlns="http://www.w3.org/2000/svg" xmlns:xlink="http://www.w3.org/1999/xlink" version="1.1" x="0" y="0" viewBox="5.900000000000002 12.599999999999998 88.5 82.70000000000002" enable-background="new 0 0 100 100" xml:space="preserve" height="119.65396448780488" width="128.04565728138732" class="icon-icon-0" data-fill-palette-color="accent" id="icon-0"><g fill="#61777f" data-fill-palette-color="accent"><circle fill="none" cx="14" cy="41.5" r="4.0"></circle><circle fill="none" cx="73.1" cy="20.9" r="4.0"></circle><circle fill="none" cx="85.8" cy="80.5" r="4.0"></circle><path fill="#61777f" d="M88.8 72.7V59.5c0-1.6-1.3-3-3-3H72.2v-10h7.5c1.1 2 3.2 3.4 5.6 3.4 3.5 0 6.4-2.9 6.4-6.4 0-3.5-2.9-6.4-6.4-6.4-2.6 0-4.8 1.5-5.8 3.7l-7.3-0.1v-0.3c0-3.6-2.9-6.5-6.5-6.5H55.1V23.9h10.2c1.2 3.1 4.2 5.3 7.7 5.3 4.6 0 8.3-3.7 8.3-8.3s-3.7-8.3-8.3-8.3c-3.5 0-6.5 2.2-7.7 5.3H52.1c-1.6 0-3 1.3-3 3v13.1H36.7c-2.8 0-5.2 1.9-6.1 4.4h-8.7c-1.2-3.1-4.2-5.3-7.7-5.3-4.6 0-8.3 3.7-8.3 8.3s3.7 8.3 8.3 8.3c3.6 0 6.7-2.4 7.8-5.6l8.3 0.1v17.2h-3.5c-1.1-2-3.2-3.4-5.6-3.4-3.5 0-6.4 2.9-6.4 6.4 0 3.5 2.9 6.4 6.4 6.4 2.6 0 4.8-1.5 5.8-3.7l3.3 0v2.3c0 3.6 2.9 6.5 6.5 6.5h2.7v13c0 1.6 1.3 3 3 3h7.5c1.1 2 3.2 3.4 5.6 3.4 3.5 0 6.4-2.9 6.4-6.4 0-3.5-2.9-6.4-6.4-6.4-2.4 0-4.5 1.4-5.6 3.4h-4.5v-10h20.4c3.6 0 6.5-2.9 6.5-6.5v-6.9h10.7v10.2c-3.1 1.2-5.3 4.2-5.3 7.7 0 4.6 3.7 8.3 8.3 8.3 4.6 0 8.3-3.7 8.3-8.3C94.1 76.9 91.9 73.9 88.8 72.7zM73.1 16.9c2.2 0 4 1.8 4 4 0 2.2-1.8 4-4 4-2.2 0-4-1.8-4-4C69.1 18.7 70.9 16.9 73.1 16.9zM14 45.5c-2.2 0-4-1.8-4-4s1.8-4 4-4c2.2 0 4 1.8 4 4S16.3 45.5 14 45.5zM85.8 84.5c-2.2 0-4-1.8-4-4 0-2.2 1.8-4 4-4 2.2 0 4 1.8 4 4C89.9 82.7 88.1 84.5 85.8 84.5z" data-fill-palette-color="accent"></path></g></svg></g></svg></g></svg></g><defs></defs></svg><rect width="395.52" height="82.70042762485193" fill="none" stroke="none" visibility="hidden"></rect></g></svg></g></svg>